<?xml version="1.0" encoding="UTF-8"?>
<svg width="63px" height="62px" viewBox="0 0 63 62" version="1.1" xmlns="http://www.w3.org/2000/svg" xmlns:xlink="http://www.w3.org/1999/xlink">
    <title>Qore Digital - Avatar - Light</title>
    <g id="Page-1" stroke="none" stroke-width="1" fill="none" fill-rule="evenodd">
        <g id="Qore-Digital---Avatar---Light" transform="translate(0.801980, 0.000000)" fill-rule="nonzero">
            <rect id="Rectangle" x="0" y="0" width="61.3861386" height="62"></rect>
            <path d="M52.4620198,49.1296928 C51.5286865,50.331058 50.2220198,51.4197952 47.6833531,51.4197952 C43.6140198,51.4197952 41.7473531,49.5051195 41.3366865,46.8771331 L61.1980198,46.8771331 L61.1980198,46.2764505 C61.1980198,37.7918089 55.8220198,34 47.1606865,34 C38.7606865,34 33.1980198,37.7542662 33.1980198,44.9624573 C33.1980198,52.5085324 38.2753531,56 47.3846865,56 C56.0086865,56 59.8540198,52.5085324 60.8246865,49.1296928 L52.4620198,49.1296928 Z" id="Combined-Shape" fill="#FFFFFF"></path>
            <path d="M14.5349384,5.0006366 C19.5078959,5.0207362 28.1980198,5.5849756 28.1980198,16 C28.1980198,18.6412759 27.6391213,20.6490063 26.7236903,22.1749849 L28.2382982,26.9838719 C25.3712496,26.5157404 23.276923,26.1737789 21.9553184,25.9579874 C19.3114673,26.933428 16.3512725,27 14.1980198,27 C9.2922821,27 0.198019802,26.6544503 0.198019802,16 C0.198019802,5.5849756 8.8881437,5.0207362 13.8611012,5.0006366 L14.5349384,5.0006366 Z" id="Combined-Shape" fill="#FFFFFF"></path>
            <path d="M33.1980198,16 C33.1980198,26.6544503 42.6170772,27 47.6980198,27 C52.7789624,27 62.1980198,26.6544503 62.1980198,16 C62.1980198,5.3455497 52.7789624,5 47.6980198,5 C42.6170772,5 33.1980198,5.3455497 33.1980198,16 Z" id="Combined-Shape" fill="#FFFFFF"></path>
            <path d="M0.198019802,55 L8.6669374,55 L8.6669374,48.837535 L16.8267113,48.837535 C18.3883556,48.837535 19.0190197,49.7322551 19.0190197,51.2184874 C19.0190197,53.2245869 19.0190197,55 19.0190197,55 L27.8461099,55 C27.8461099,55 27.8461099,52.7591036 27.8461099,48.2773109 C27.6959518,46.5406162 27.2132389,45.5322129 25.9519108,45.1960784 L25.9519108,45.140056 C28.4145039,44.4677871 28.192862,42.4509804 28.192862,40.5742297 C28.192862,38.3893557 27.3956355,36.4565826 25.8039595,35.7282913 C24.6327263,35.1960784 23.1611768,35 20.7286153,35 C12.6856782,35 7.1021107,35 3.9779127,35 C3.1379365,35 1.8779722,35 0.198019802,35 L0.198019802,55 Z" id="Combined-Shape" fill="#FFFFFF"></path>
        </g>
    </g>
</svg>