<?xml version="1.0" standalone="no"?>
<!DOCTYPE svg PUBLIC "-//W3C//DTD SVG 20010904//EN"
 "http://www.w3.org/TR/2001/REC-SVG-20010904/DTD/svg10.dtd">
<svg version="1.0" xmlns="http://www.w3.org/2000/svg"
 width="1008.000000pt" height="1008.000000pt" viewBox="0 0 1008.000000 1008.000000"
 preserveAspectRatio="xMidYMid meet">
<metadata>
Created by potrace 1.14, written by Peter Selinger 2001-2017
</metadata>
<g transform="translate(0.000000,1008.000000) scale(0.100000,-0.100000)"
fill="#000000" stroke="none">
<path d="M2288 9204 c-4 -3 -75 -8 -160 -10 -142 -4 -191 -7 -308 -18 -143
-14 -251 -31 -380 -61 -14 -3 -36 -8 -50 -11 -48 -10 -194 -57 -261 -84 -38
-15 -71 -25 -74 -22 -3 3 -5 1 -5 -4 0 -5 -23 -18 -50 -29 -27 -11 -50 -22
-50 -26 0 -4 -12 -10 -27 -14 -15 -3 -30 -10 -33 -14 -3 -4 -23 -18 -45 -31
-118 -70 -281 -214 -348 -307 -17 -24 -34 -43 -39 -43 -5 0 -6 -4 -3 -10 3 -5
1 -10 -4 -10 -6 0 -11 -6 -11 -14 0 -8 -4 -16 -9 -18 -14 -5 -131 -223 -131
-244 0 -3 -6 -20 -14 -37 -12 -28 -35 -92 -42 -122 -2 -5 -12 -46 -24 -89 -11
-44 -18 -81 -15 -84 3 -3 1 -10 -4 -16 -8 -10 -12 -35 -27 -166 -2 -19 -6 -81
-8 -137 -2 -56 -7 -106 -11 -112 -3 -6 -2 -11 4 -11 7 0 7 -8 1 -24 -5 -13 -6
-26 -3 -29 2 -3 7 -54 9 -114 2 -59 6 -121 8 -138 3 -16 7 -52 11 -80 3 -27
10 -67 16 -87 5 -20 9 -40 7 -45 -4 -18 55 -208 95 -303 104 -248 269 -456
472 -593 33 -22 62 -43 65 -46 6 -7 165 -92 180 -96 3 -1 23 -10 45 -20 22
-10 46 -18 53 -18 6 0 12 -4 12 -9 0 -5 4 -6 10 -3 5 3 10 1 10 -6 0 -7 2 -10
6 -7 3 3 27 -3 55 -13 27 -10 49 -16 49 -13 0 4 7 1 15 -6 8 -7 15 -9 15 -5 0
4 6 3 13 -3 10 -8 43 -17 147 -37 8 -2 15 -4 15 -5 0 -2 11 -4 132 -25 48 -9
106 -18 128 -20 22 -3 65 -7 95 -10 308 -33 810 -32 1170 0 108 10 138 15 275
41 17 3 39 7 51 8 11 2 25 5 30 8 5 4 27 9 49 12 36 6 113 27 155 43 8 3 20 7
25 8 6 1 13 3 18 5 4 1 12 4 17 5 6 1 12 4 15 5 11 6 65 4 65 -2 0 -3 14 -5
30 -4 17 1 30 0 30 -3 0 -3 10 -7 23 -8 12 -1 36 -4 52 -7 17 -3 48 -8 70 -11
22 -4 49 -8 60 -10 11 -2 38 -6 60 -9 22 -3 51 -8 65 -11 14 -3 41 -7 60 -10
19 -3 131 -20 248 -40 117 -19 223 -35 236 -35 l23 0 -19 58 c-10 31 -23 66
-27 77 -8 17 -29 87 -37 120 -1 6 -14 44 -27 85 -14 41 -27 84 -29 95 -1 11
-6 22 -10 25 -4 3 -9 17 -11 30 -2 14 -7 33 -11 42 -4 9 -8 22 -10 30 -1 7 -5
19 -9 26 -5 6 -6 12 -3 12 3 0 -2 16 -10 35 -8 19 -12 35 -10 35 3 0 -3 19
-13 41 l-19 41 30 62 c17 33 36 64 42 68 6 4 8 8 3 8 -4 0 -1 13 7 28 14 26
55 136 59 157 2 6 5 15 9 20 3 6 12 37 19 70 7 33 13 62 14 65 30 120 42 217
50 399 3 68 8 127 11 132 3 5 2 9 -3 9 -4 0 -8 39 -9 88 -1 92 -9 210 -19 252
-3 14 -8 45 -11 70 -5 39 -25 124 -54 225 -77 272 -263 545 -483 707 -28 22
-59 44 -68 51 -28 22 -54 37 -79 48 -13 5 -27 13 -30 17 -4 6 -114 63 -130 67
-11 3 -66 26 -85 35 -29 14 -192 66 -245 78 -25 6 -58 14 -75 18 -206 49 -447
75 -712 78 -62 0 -113 5 -113 9 0 4 -8 4 -17 -1 -21 -10 -33 -10 -50 1 -6 4
-14 3 -18 -3 -4 -7 -12 -7 -26 0 -14 8 -19 7 -19 -1 0 -9 -3 -9 -14 0 -10 8
-16 9 -21 1 -4 -6 -12 -7 -23 -1 -11 6 -24 5 -36 -1 -14 -8 -17 -7 -12 1 8 12
3 15 -6 5z"/>
<path d="M7607 9204 c-3 -4 -66 -8 -139 -10 -73 -2 -164 -6 -203 -9 -116 -9
-168 -14 -205 -19 -19 -3 -48 -7 -65 -9 -32 -5 -108 -17 -140 -23 -11 -2 -31
-6 -45 -9 -55 -11 -72 -14 -90 -20 -10 -3 -27 -8 -38 -10 -10 -2 -52 -14 -93
-26 -41 -13 -76 -23 -79 -23 -14 -3 -114 -43 -178 -72 -41 -19 -78 -34 -83
-34 -5 0 -9 -5 -9 -11 0 -5 -4 -8 -9 -4 -5 3 -16 -2 -24 -10 -9 -8 -18 -15
-21 -15 -6 0 -102 -58 -121 -72 -132 -102 -248 -211 -295 -278 -13 -19 -27
-37 -30 -40 -14 -12 -80 -121 -117 -195 -71 -138 -144 -381 -159 -525 -3 -25
-7 -56 -9 -70 -4 -21 -18 -246 -17 -275 2 -61 14 -267 17 -290 16 -123 17
-130 34 -210 51 -233 161 -468 296 -635 36 -44 149 -155 200 -196 118 -95 289
-191 440 -247 22 -8 49 -18 60 -23 11 -4 23 -8 28 -9 4 -2 8 -3 10 -4 1 -2 13
-4 26 -7 14 -2 30 -9 36 -14 7 -5 15 -7 18 -3 4 3 13 1 20 -5 7 -6 29 -13 48
-16 19 -2 41 -7 49 -10 8 -3 26 -8 40 -10 14 -3 36 -8 50 -11 14 -3 43 -8 65
-11 22 -3 47 -7 55 -10 8 -3 35 -8 60 -9 25 -2 55 -6 67 -9 13 -3 58 -8 100
-11 43 -3 94 -8 113 -10 145 -17 779 -18 980 0 138 11 186 16 210 20 23 3 74
11 145 21 30 4 57 9 105 20 62 13 76 16 93 17 9 1 17 5 17 9 0 4 6 5 14 2 8
-3 17 0 21 5 3 6 10 9 15 6 5 -3 18 -1 28 4 11 6 30 12 43 14 32 6 210 73 279
105 89 42 210 116 290 178 85 65 210 190 248 246 13 21 29 38 33 38 5 0 9 4 9
9 0 6 14 30 30 54 17 25 30 49 30 55 0 5 7 15 15 22 8 7 15 20 15 29 0 9 5 22
11 28 15 15 79 173 79 195 0 10 5 18 12 18 6 0 9 3 6 6 -4 3 2 34 12 70 10 35
17 64 15 64 -3 0 0 12 5 26 6 14 13 49 16 77 4 29 8 55 10 58 25 42 24 588 0
700 -3 13 -8 40 -11 59 -8 60 -19 109 -34 158 -5 17 -7 32 -3 32 3 0 1 5 -6
12 -7 7 -12 19 -12 27 0 29 -96 259 -113 272 -5 3 -8 9 -8 13 2 8 -31 59 -42
67 -5 3 -8 10 -8 15 5 41 -271 330 -350 368 -10 5 -19 13 -19 18 0 5 -4 6 -10
3 -5 -3 -10 -1 -10 5 0 6 -8 13 -17 17 -10 3 -25 12 -33 19 -16 14 -190 102
-203 103 -4 0 -20 7 -35 15 -95 49 -454 146 -599 161 -27 3 -64 8 -83 10 -19
3 -64 7 -100 11 -36 3 -83 7 -105 9 -22 3 -120 6 -219 9 -98 3 -180 7 -183 10
-3 3 -14 1 -24 -5 -11 -5 -19 -6 -19 -2 0 10 -52 9 -68 -1 -6 -3 -13 -2 -17 4
-4 6 -12 7 -18 3 -16 -10 -80 -10 -88 0 -3 4 -8 4 -12 1z"/>
<path d="M7585 4561 c-2 -2 -46 -5 -97 -6 -51 -2 -124 -6 -163 -9 -73 -6 -93
-9 -245 -31 -82 -12 -105 -16 -150 -26 -25 -6 -56 -13 -70 -15 -14 -3 -32 -7
-40 -10 -8 -3 -26 -8 -40 -10 -32 -6 -205 -61 -245 -79 -16 -7 -40 -16 -52
-19 -24 -7 -159 -71 -183 -86 -8 -5 -35 -20 -60 -32 -25 -13 -54 -31 -64 -40
-11 -10 -25 -18 -31 -18 -6 0 -20 -8 -31 -18 -10 -10 -40 -33 -66 -51 -27 -19
-48 -38 -48 -43 0 -4 -5 -8 -11 -8 -13 0 -182 -168 -212 -210 -57 -81 -146
-220 -158 -247 -8 -18 -17 -33 -20 -33 -3 0 -6 -6 -6 -12 -1 -7 -15 -46 -32
-86 -17 -41 -42 -116 -56 -168 -31 -110 -27 -95 -50 -244 -4 -22 -17 -199 -17
-225 0 -37 13 -267 17 -295 3 -19 7 -57 10 -85 8 -67 41 -203 72 -295 37 -109
144 -329 166 -338 4 -2 7 -10 7 -18 0 -8 5 -14 10 -14 6 0 10 -5 10 -11 0 -6
6 -17 13 -24 6 -8 26 -30 42 -51 65 -80 184 -191 260 -244 28 -19 52 -38 53
-42 2 -5 10 -8 18 -8 8 0 14 -3 14 -7 0 -5 10 -13 23 -19 73 -37 94 -48 108
-61 9 -7 26 -16 39 -18 12 -2 27 -8 34 -14 17 -13 156 -71 156 -64 0 3 6 1 13
-4 11 -9 69 -31 100 -37 7 -2 19 -6 27 -9 42 -18 293 -74 375 -83 28 -4 57
-10 66 -15 9 -4 18 -6 21 -4 3 3 39 1 81 -5 71 -9 109 -12 312 -26 77 -5 72
-5 150 -5 30 0 61 0 68 0 48 -1 341 12 379 16 26 4 71 8 100 10 51 3 70 6 188
25 69 12 107 19 145 27 17 4 38 8 48 9 9 1 18 2 20 4 1 1 9 3 17 5 72 19 90
22 94 17 4 -3 6 0 6 7 0 7 4 9 10 6 5 -3 23 1 39 10 17 8 34 14 38 13 4 -2 22
2 38 9 52 20 70 26 80 29 48 13 314 138 325 153 3 4 12 11 20 15 27 13 106 63
127 81 6 5 29 23 50 40 48 38 157 137 162 148 1 4 11 16 21 25 64 61 230 343
230 393 0 8 5 20 11 26 21 21 -2 34 -57 32 -29 -2 -56 0 -60 4 -3 3 -16 2 -28
-3 -13 -4 -29 -4 -39 1 -9 6 -17 6 -17 2 0 -5 -20 -8 -45 -8 -25 0 -45 4 -45
8 0 5 -6 5 -12 0 -16 -9 -78 -11 -78 -2 0 4 -16 3 -35 -1 -21 -5 -35 -4 -35 2
0 5 -6 6 -12 2 -14 -9 -126 -9 -135 -1 -3 3 -15 2 -27 -3 -13 -4 -29 -4 -39 1
-9 6 -17 6 -17 2 0 -9 -148 -8 -157 1 -3 2 -15 1 -27 -4 -13 -4 -29 -4 -39 1
-9 6 -17 6 -17 2 0 -9 -148 -8 -157 1 -3 2 -15 1 -27 -4 -13 -4 -29 -4 -39 1
-9 6 -17 6 -17 2 0 -10 -83 -9 -99 1 -6 4 -11 3 -11 -2 0 -5 -12 -8 -26 -6
-21 2 -43 -15 -117 -90 -51 -51 -112 -106 -137 -122 -63 -42 -170 -94 -192
-94 -10 0 -18 -5 -18 -11 0 -6 -7 -9 -15 -6 -8 4 -17 2 -20 -3 -3 -5 -13 -9
-23 -9 -24 1 -66 -6 -77 -12 -26 -14 -325 -16 -415 -4 -67 9 -85 12 -87 15 -2
1 -12 4 -23 5 -11 1 -23 4 -27 5 -5 1 -12 3 -18 4 -52 10 -85 19 -85 25 0 4
-9 7 -19 8 -27 2 -148 60 -201 96 -52 36 -102 79 -139 121 -14 16 -32 35 -38
42 -7 7 -13 17 -13 23 0 6 -4 11 -10 11 -5 0 -10 6 -10 14 0 8 -4 16 -8 18
-11 4 -72 132 -83 173 -29 110 -36 145 -30 150 7 3 132 6 181 4 8 -1 116 -1
240 0 124 0 232 0 240 0 8 -1 116 -1 240 0 124 0 232 0 240 0 8 -1 116 -1 240
0 124 0 232 0 240 0 8 -1 116 -1 240 0 124 0 232 0 240 0 8 -1 116 -1 240 0
124 0 232 0 240 0 17 -1 454 0 485 0 11 1 42 1 69 1 41 0 47 2 37 14 -7 8 -8
17 -4 19 10 6 8 81 -2 97 -3 6 -1 10 5 10 6 0 8 5 4 12 -4 6 -9 48 -10 92 -3
84 -18 251 -23 251 -1 0 -4 18 -6 40 -10 110 -73 327 -137 475 -6 14 -12 27
-13 30 -20 61 -151 270 -215 344 -91 106 -291 286 -317 286 -5 0 -18 9 -28 20
-10 11 -24 20 -32 20 -7 0 -13 3 -13 8 0 4 -10 12 -23 18 -12 6 -62 31 -112
56 -151 76 -276 125 -394 154 -9 2 -61 15 -116 28 -54 14 -101 23 -103 21 -3
-2 -12 0 -21 4 -9 5 -38 11 -66 15 -27 3 -61 8 -75 11 -58 11 -256 27 -357 29
-40 0 -73 5 -73 10 0 5 -6 3 -14 -3 -7 -6 -21 -9 -30 -5 -17 7 -155 11 -161 5z"/>
<path d="M295 4402 c-3 -3 -32 -4 -64 -3 -51 2 -61 -1 -71 -18 -7 -15 -8 -21
0 -21 7 0 8 -6 2 -17 -9 -20 -8 -54 2 -71 3 -6 2 -13 -3 -17 -7 -4 -7 -15 -1
-30 6 -16 6 -25 0 -25 -6 0 -6 -9 -1 -23 5 -14 5 -30 0 -40 -7 -11 -6 -17 0
-17 7 0 7 -8 1 -25 -6 -16 -6 -26 1 -31 7 -4 6 -10 -1 -19 -7 -9 -7 -15 -1
-19 10 -6 8 -37 -4 -56 -3 -6 -1 -10 5 -10 8 0 8 -6 0 -20 -8 -14 -8 -20 0
-20 8 0 8 -6 0 -20 -8 -14 -8 -20 0 -20 7 0 8 -6 2 -17 -9 -20 -8 -60 2 -70 3
-3 1 -12 -5 -19 -7 -8 -7 -14 1 -19 7 -4 7 -12 0 -26 -7 -12 -7 -19 -1 -19 6
0 6 -11 1 -30 -5 -19 -5 -30 1 -30 6 0 6 -7 -1 -19 -7 -14 -7 -22 0 -26 8 -5
8 -11 0 -20 -6 -7 -7 -16 -2 -19 9 -5 8 -59 -3 -75 -3 -6 -1 -11 5 -11 8 0 8
-6 0 -20 -8 -14 -8 -20 0 -20 8 0 8 -6 0 -20 -8 -14 -8 -20 0 -20 7 0 8 -6 2
-17 -9 -20 -8 -54 2 -71 3 -6 2 -13 -3 -17 -7 -4 -7 -15 -1 -30 6 -16 6 -25 0
-25 -6 0 -6 -9 -1 -23 5 -14 5 -30 0 -40 -7 -11 -6 -17 0 -17 7 0 7 -8 1 -25
-6 -16 -6 -26 1 -31 7 -4 6 -10 -1 -19 -7 -9 -7 -15 -1 -19 10 -6 8 -37 -4
-56 -3 -6 -1 -10 5 -10 8 0 8 -6 0 -20 -8 -14 -8 -20 0 -20 8 0 8 -6 0 -20 -8
-14 -8 -20 0 -20 7 0 8 -6 2 -17 -9 -20 -8 -60 2 -70 3 -3 1 -12 -5 -19 -7 -8
-7 -14 1 -19 7 -4 7 -12 0 -26 -7 -12 -7 -19 -1 -19 6 0 6 -11 1 -30 -5 -19
-5 -30 1 -30 6 0 6 -7 -1 -19 -7 -14 -7 -22 0 -26 8 -5 8 -11 0 -20 -6 -7 -7
-16 -2 -19 9 -5 8 -59 -3 -75 -3 -6 -1 -11 5 -11 8 0 8 -6 0 -20 -8 -14 -8
-20 0 -20 8 0 8 -6 0 -20 -8 -14 -8 -20 0 -20 7 0 8 -6 2 -17 -9 -20 -8 -54 2
-71 3 -6 2 -13 -3 -17 -7 -4 -7 -15 -1 -30 6 -16 6 -25 0 -25 -6 0 -6 -9 -1
-23 5 -14 5 -30 0 -40 -7 -11 -6 -17 0 -17 7 0 7 -8 1 -25 -6 -16 -6 -26 1
-31 7 -4 6 -10 -1 -19 -7 -9 -7 -15 -1 -19 10 -6 8 -37 -4 -56 -3 -6 -1 -10 5
-10 8 0 8 -6 0 -20 -8 -14 -8 -20 0 -20 8 0 8 -6 0 -20 -8 -14 -8 -20 0 -20 7
0 8 -6 2 -17 -9 -20 -8 -60 2 -70 3 -3 1 -12 -5 -19 -7 -8 -7 -14 1 -19 7 -4
7 -12 0 -26 -7 -12 -7 -19 -1 -19 6 0 6 -11 1 -30 -5 -19 -5 -30 1 -30 6 0 6
-7 -1 -19 -7 -14 -7 -22 0 -26 8 -5 8 -11 0 -20 -6 -7 -7 -16 -2 -19 9 -5 8
-59 -3 -75 -3 -6 -1 -11 5 -11 8 0 8 -6 0 -20 -8 -14 -8 -20 0 -20 8 0 8 -6 0
-20 -8 -14 -8 -20 0 -20 7 0 8 -6 2 -17 -9 -20 -8 -54 2 -71 3 -6 2 -13 -3
-17 -7 -4 -7 -15 -1 -30 6 -16 6 -25 0 -25 -6 0 -6 -10 0 -26 7 -16 7 -23 0
-19 -7 4 -7 -3 0 -19 7 -19 6 -26 -2 -26 -6 0 -3 -9 7 -20 13 -14 22 -17 35
-10 11 6 21 5 28 -2 9 -9 12 -9 12 0 0 9 5 10 19 3 10 -6 21 -7 25 -4 7 8 66
10 66 3 0 -7 66 -4 79 5 6 3 11 1 11 -5 0 -8 6 -7 21 1 15 7 24 8 32 0 6 -6
16 -7 28 -1 11 7 20 7 24 0 4 -7 13 -7 26 0 10 6 19 7 19 3 0 -9 63 -8 79 1 5
4 12 2 16 -4 4 -6 11 -7 17 -4 15 10 68 11 68 2 0 -4 14 -3 30 2 17 5 30 5 30
2 0 -9 64 -7 79 3 6 3 11 1 11 -5 0 -8 6 -7 21 1 15 7 24 8 32 0 6 -6 16 -7
28 -1 11 7 20 7 24 0 4 -7 13 -7 26 0 10 6 19 7 19 3 0 -9 63 -8 79 1 5 4 12
2 16 -4 4 -6 11 -7 17 -4 13 8 68 11 68 4 0 -3 14 -5 30 -5 17 0 30 4 30 8 0
4 8 3 18 -2 11 -6 24 -6 35 0 11 7 17 6 17 -1 0 -7 6 -8 18 -1 13 7 23 6 30
-1 9 -9 12 -9 12 1 0 9 4 10 13 4 6 -5 23 -7 37 -4 l25 7 0 489 0 490 695 0
c648 -1 699 -2 753 -19 31 -10 57 -23 57 -27 0 -5 6 -9 14 -9 8 0 32 -21 53
-47 78 -95 84 -137 84 -540 0 -305 2 -334 17 -342 11 -6 24 -6 34 0 11 6 19 6
23 -1 4 -6 11 -7 17 -4 15 10 68 11 68 2 0 -4 13 -3 30 2 17 5 30 5 30 2 0 -9
64 -7 79 3 6 3 11 1 11 -5 0 -8 6 -7 21 1 15 7 24 8 32 0 6 -6 16 -7 28 -1 11
7 20 7 24 0 4 -7 13 -7 26 0 10 6 19 7 19 3 0 -9 63 -8 79 1 5 4 12 2 16 -4 4
-6 11 -7 17 -4 15 10 68 11 68 2 0 -4 13 -3 30 2 17 5 30 5 30 2 0 -9 64 -7
79 3 6 3 11 1 11 -5 0 -8 6 -7 21 1 15 7 24 8 32 0 6 -6 16 -7 28 -1 11 7 20
7 24 0 4 -7 13 -7 26 0 10 6 19 7 19 3 0 -9 63 -8 79 1 5 4 12 2 16 -4 4 -6
11 -7 17 -4 15 10 68 11 68 2 0 -4 13 -3 30 2 16 5 30 5 30 2 0 -9 64 -7 79 3
6 3 11 1 11 -5 0 -8 6 -8 21 0 14 8 24 8 32 1 8 -6 18 -6 27 -1 9 5 19 5 26
-1 8 -6 16 -5 25 4 12 11 14 111 13 553 -1 296 -4 563 -8 592 -25 198 -105
338 -226 395 -25 11 -48 21 -52 21 -19 2 -11 19 10 23 29 4 131 54 161 79 73
60 134 161 147 240 3 21 8 43 11 48 4 6 15 222 15 281 -1 51 -12 236 -16 260
-17 106 -22 127 -64 240 -15 39 -34 81 -43 95 -9 14 -29 45 -45 69 -32 49
-141 151 -161 151 -7 0 -13 3 -13 8 0 4 -15 13 -32 20 -18 8 -42 17 -53 22
-59 24 -105 38 -145 45 -25 4 -49 10 -55 14 -5 3 -17 6 -25 7 -26 1 -154 16
-175 20 -28 6 -401 16 -465 13 -28 -1 -255 0 -300 2 -25 1 -52 1 -60 1 -8 -1
-67 -1 -130 -1 -63 1 -128 1 -145 0 -16 0 -66 0 -110 0 -44 1 -87 1 -95 1 -8
-1 -67 -1 -130 -1 -109 1 -154 0 -182 -2 -7 0 -62 0 -123 0 -60 0 -126 0 -145
-1 -19 0 -62 0 -95 1 -88 2 -357 3 -380 1 -33 -2 -254 -2 -325 1 -25 1 -52 1
-60 1 -8 -1 -67 -1 -130 -1 -63 1 -128 1 -145 0 -16 0 -66 0 -110 0 -44 1 -87
1 -95 1 -49 -3 -239 -1 -262 2 -15 2 -30 1 -33 -2z"/>
</g>
</svg>
