<svg height="65" viewBox="0 0 57 65" width="57" xmlns="http://www.w3.org/2000/svg">
<style>
    path {
      fill: #055;
    }
    @media (prefers-color-scheme: dark) {
      path {
        fill: white;
      }
    }
  </style>
<path d="m36.7573333 46.7180235 8.4339451 4.8672628-8.4339451 4.8692706zm-.0130509-29.5509333-.0020079-9.74657255 8.4419765 4.87378825zm-14.2868079-11.28985098 4.3085804-2.49524706c.4487529-.26001569.9494588-.38977255 1.4504157-.38977255.5004549 0 1.0011608.12975686 1.4494118.38901961l4.3095843 2.49374118.0022588 12.889349-5.7461961 3.3177098-5.7715451-3.3322666zm-19.68489411 18.00056468-.00577468-4.9792c-.00125277-1.036298.55190802-1.9940392 1.44991586-2.5113098l4.3148549-2.4844549 18.54243133 10.7055686c.3581491.2068079.7579608.3102118 1.1575216.3102118.3998118 0 .7993726-.1034039 1.1577726-.3102118l18.5421804-10.7055686 4.3148549 2.4847059c.8980078.5170196 1.4511686 1.4747608 1.4499158 2.5113098l-.0057747 4.978949-18.5424313 10.7053177c-.7162981.4136157-1.1575216 1.1781019-1.1575216 2.0050823v21.4108863l-4.3090824 2.4944941c-.4485019.2597647-.9492078.3892706-1.4499137.3892706s-1.0014118-.1295059-1.4499137-.3892706l-4.3088314-2.4944941v-21.4108863c0-.8272313-.4412235-1.5914666-1.1575216-2.0050823zm16.93339611 19.6399687-11.18092552 6.4582274-4.31535686-2.483451c-.89800785-.5172706-1.45141961-1.4747608-1.45016684-2.5110588l.00477076-4.978949 11.19924706-6.4687686 5.7424314 3.3152zm22.7887686-9.9814902 11.1872 6.4562196.0067795 4.978949c.0015029 1.036298-.551407 1.9942902-1.4494148 2.5115608l-4.314102 2.4852078-11.1678745-6.4449255v-6.6743215zm-22.8038275-26.0984471.0020079 9.7141961-8.4138667-4.8577255zm-16.95071368 19.6158745 8.45678428 4.8825726-8.45678428 4.8848313zm8.53132548 24.5313255 8.4344471-4.8720314v9.741302zm42.4515765-14.7634196-8.461302-4.8828235 8.461302-4.8850824zm.6219294-22.4020079-23.9954824-13.85386662c-1.3063529-.75444706-2.9296941-.75419608-4.236047 0l-23.99548237 13.85386662c-1.30635294.7541961-2.11802353 2.1599373-2.11802353 3.6683295v27.7077333c0 1.5083921.81167059 2.9141333 2.11802353 3.6683294l23.99548237 13.8538667c.6533019.3772235 1.3856627.5657098 2.1180235.5657098s1.4649726-.1884863 2.1180235-.5657098l23.9957334-13.8538667c1.3063529-.7541961 2.1177725-2.1599373 2.1177725-3.6683294v-27.7077333c0-1.5083922-.8114196-2.9141334-2.1180235-3.6683295z" fill-rule="evenodd" transform="translate(0 .544555)"/></svg>