<?xml version="1.0" standalone="no"?>
<!DOCTYPE svg PUBLIC "-//W3C//DTD SVG 20010904//EN"
 "http://www.w3.org/TR/2001/REC-SVG-20010904/DTD/svg10.dtd">
<svg version="1.0" xmlns="http://www.w3.org/2000/svg"
 width="1040.000000pt" height="1040.000000pt" viewBox="0 0 1040.000000 1040.000000"
 preserveAspectRatio="xMidYMid meet">
<metadata>
Created by potrace 1.14, written by Peter Selinger 2001-2017
</metadata>
<g transform="translate(0.000000,1040.000000) scale(0.100000,-0.100000)"
fill="#000000" stroke="none">
<path d="M5090 10309 c-36 -5 -83 -13 -105 -19 -22 -6 -42 -10 -45 -9 -9 3
-194 -98 -348 -189 -29 -18 -57 -32 -62 -32 -6 0 -10 -4 -10 -10 0 -5 -4 -10
-9 -10 -6 0 -118 -63 -251 -140 -133 -77 -246 -140 -251 -140 -5 0 -9 -4 -9
-10 0 -5 -4 -10 -9 -10 -10 0 -516 -288 -561 -320 -15 -10 -50 -31 -79 -46
-71 -38 -86 -47 -106 -64 -10 -8 -20 -14 -22 -12 -3 2 -130 -69 -193 -108 -61
-37 -174 -100 -181 -100 -5 0 -9 -5 -9 -11 0 -5 -4 -7 -10 -4 -5 3 -10 1 -10
-4 0 -6 -7 -11 -15 -11 -8 0 -15 -4 -15 -10 0 -5 -9 -10 -20 -10 -11 0 -20 -4
-20 -8 0 -5 -21 -20 -47 -34 -105 -55 -168 -92 -171 -100 -2 -4 -8 -8 -13 -8
-5 0 -53 -25 -107 -56 -307 -179 -405 -234 -412 -234 -5 0 -10 -3 -12 -7 -1
-5 -23 -19 -48 -32 -25 -14 -47 -27 -50 -30 -3 -3 -21 -14 -40 -23 -38 -18
-92 -50 -100 -58 -5 -5 -59 -35 -125 -69 -16 -9 -32 -18 -35 -21 -8 -8 -49
-32 -205 -120 -22 -12 -97 -56 -167 -96 -69 -41 -131 -74 -137 -74 -6 0 -11
-4 -11 -8 0 -4 -25 -20 -55 -36 -97 -49 -229 -166 -257 -228 -7 -16 -16 -28
-19 -28 -4 0 -10 -11 -13 -25 -4 -14 -11 -25 -16 -25 -6 0 -10 -7 -10 -15 0
-8 -5 -23 -10 -33 -6 -9 -19 -51 -30 -92 -18 -73 -19 -141 -19 -2365 0 -2094
2 -2347 23 -2410 2 -5 5 -14 6 -20 17 -70 89 -192 157 -266 41 -44 133 -113
198 -148 22 -12 47 -25 55 -31 37 -23 152 -90 156 -90 2 0 33 -18 69 -40 36
-22 67 -40 69 -40 2 0 45 -25 95 -55 51 -30 94 -55 97 -55 2 0 33 -17 67 -38
34 -22 109 -65 167 -97 58 -33 107 -62 110 -65 3 -3 23 -15 45 -27 22 -11 56
-30 75 -42 19 -11 87 -50 150 -86 63 -36 122 -70 130 -75 29 -19 246 -143 300
-172 30 -17 67 -39 82 -49 14 -11 29 -19 32 -19 4 0 23 -11 44 -24 20 -12 39
-23 42 -23 3 0 31 -16 62 -37 31 -20 62 -36 68 -36 5 0 10 -4 10 -10 0 -5 4
-10 9 -10 8 0 154 -83 516 -293 66 -38 140 -81 165 -95 25 -13 50 -28 55 -32
6 -4 30 -18 55 -32 106 -59 215 -123 221 -131 3 -5 8 -7 10 -6 2 2 32 -14 67
-34 35 -20 67 -37 72 -37 4 0 10 -4 12 -8 2 -5 28 -22 58 -39 131 -72 156 -86
171 -99 8 -8 19 -14 23 -14 4 0 75 -40 159 -89 84 -49 172 -101 197 -115 172
-100 285 -135 430 -130 52 1 106 5 120 9 14 3 35 8 47 11 12 2 35 9 50 16 16
6 30 12 33 12 5 1 184 100 210 116 74 46 261 150 269 150 6 0 11 4 11 10 0 5
11 12 25 16 14 3 25 9 25 13 0 4 12 12 28 18 15 7 52 27 82 45 31 18 87 51
125 72 39 22 72 44 73 48 2 4 8 8 13 8 9 0 152 80 199 110 8 6 35 20 60 33 25
12 47 25 50 28 3 4 23 17 45 29 22 13 58 33 80 45 22 13 81 47 130 75 50 29
137 80 195 113 58 33 119 68 135 78 17 10 41 24 55 32 14 7 81 46 150 87 69
40 141 82 160 92 19 10 42 23 50 28 46 31 363 210 371 210 5 0 9 3 9 8 0 4 31
23 68 42 37 19 72 40 78 45 6 6 30 19 53 29 22 11 41 23 41 28 0 4 9 8 19 8
11 0 21 4 23 8 2 5 35 26 73 47 39 20 77 44 86 51 8 8 18 14 22 14 6 0 143 78
177 100 8 6 22 13 30 17 8 3 39 21 68 40 29 18 54 33 57 33 2 0 28 14 57 31
29 18 68 40 86 50 42 24 61 36 281 163 218 126 275 169 351 267 65 84 123 233
130 334 2 28 3 1067 3 2310 1 2295 -1 2380 -34 2401 -5 3 -9 14 -9 24 0 22
-50 118 -89 170 -37 50 -116 130 -130 130 -6 0 -11 4 -11 9 0 8 -128 86 -259
158 -25 14 -58 34 -73 44 -14 11 -31 19 -36 19 -6 0 -17 6 -24 13 -7 7 -24 18
-38 25 -14 6 -32 16 -40 22 -20 13 -127 75 -245 141 -33 18 -61 37 -63 41 -2
4 -7 8 -12 8 -8 0 -248 134 -300 168 -14 9 -28 15 -32 14 -5 -1 -8 3 -8 8 0 6
-4 10 -10 10 -5 0 -39 18 -75 40 -36 22 -67 40 -69 40 -3 0 -41 23 -86 50 -45
28 -83 50 -86 50 -4 0 -125 70 -174 101 -29 18 -786 453 -815 468 -16 9 -32
18 -35 21 -3 3 -15 11 -27 18 -13 6 -33 18 -45 25 -13 6 -26 16 -29 20 -3 5
-10 9 -15 9 -5 0 -39 17 -75 38 -36 22 -78 44 -92 51 -15 7 -27 16 -27 21 0 4
-4 8 -9 8 -9 0 -211 113 -251 140 -8 6 -22 13 -30 17 -8 4 -33 17 -54 31 -22
13 -58 34 -80 46 -56 30 -90 50 -96 56 -4 4 -39 24 -95 54 -11 6 -22 13 -25
16 -3 3 -21 13 -40 23 -57 30 -112 61 -155 88 -22 13 -53 31 -70 39 -16 8 -32
17 -35 20 -3 3 -54 34 -115 69 -125 71 -229 110 -318 117 -34 3 -66 6 -72 8
-5 1 -39 -1 -75 -5z m175 -490 c33 -7 67 -18 76 -25 8 -8 19 -14 23 -14 12 0
260 -144 264 -152 2 -5 8 -8 13 -8 5 0 61 -30 124 -67 64 -38 139 -81 168 -97
77 -43 90 -50 117 -68 l25 -17 -1 -1018 c-1 -560 -2 -1025 -3 -1034 0 -8 -29
-30 -63 -48 -35 -19 -70 -39 -78 -45 -8 -7 -26 -18 -40 -24 -14 -7 -41 -22
-60 -33 -60 -36 -314 -182 -345 -198 -16 -9 -32 -18 -35 -21 -10 -10 -153 -90
-161 -90 -5 0 -9 -4 -9 -10 0 -5 -5 -10 -11 -10 -7 0 -34 -14 -61 -30 l-49
-30 -202 116 c-111 64 -215 124 -232 134 -16 9 -73 41 -125 71 -52 29 -97 56
-100 60 -3 3 -10 8 -15 10 -6 2 -65 35 -131 73 l-120 69 0 1029 1 1029 108 65
c60 35 113 64 118 64 5 0 9 4 9 8 0 5 16 14 35 22 19 8 35 17 35 21 0 4 9 11
21 14 26 9 121 66 131 80 4 5 8 7 8 3 0 -4 44 19 98 52 103 60 173 98 182 97
3 0 16 5 28 12 13 7 47 15 75 18 29 3 53 7 55 8 4 4 63 -3 127 -16z m-1475
-1475 l0 -775 -42 23 c-24 13 -45 26 -48 29 -3 3 -12 8 -20 12 -8 4 -22 11
-30 17 -8 5 -82 48 -165 96 -155 89 -295 170 -330 191 -11 7 -27 15 -35 19 -7
4 -78 45 -157 91 -78 46 -147 83 -153 83 -5 0 -10 4 -10 9 0 5 -8 11 -17 15
-10 3 -31 14 -48 23 -113 68 -157 93 -166 93 -5 0 -9 5 -9 10 0 6 -6 10 -12
10 -19 0 -101 57 -91 63 4 3 24 14 43 24 19 11 80 46 135 78 55 32 143 83 195
113 52 30 109 63 125 73 17 10 41 24 55 32 14 7 85 48 158 90 73 42 137 77
142 77 6 0 10 4 10 8 0 4 12 13 28 20 15 6 48 25 74 41 26 16 71 42 100 58 29
16 72 41 95 56 24 15 47 27 53 27 5 0 10 5 10 11 0 5 4 8 9 4 5 -3 12 -1 16 5
5 8 71 47 83 50 1 0 2 -349 2 -776z m2851 711 c61 -36 116 -65 120 -65 5 0 9
-4 9 -10 0 -5 5 -10 10 -10 6 0 65 -31 131 -70 66 -38 124 -70 129 -70 6 0 10
-4 10 -10 0 -5 4 -10 10 -10 5 0 39 -18 75 -40 36 -22 70 -40 75 -40 6 0 10
-3 10 -7 0 -5 10 -13 23 -19 48 -23 163 -88 178 -100 8 -8 18 -14 21 -14 4 0
51 -27 106 -59 93 -54 154 -89 242 -137 19 -11 40 -25 48 -31 7 -7 19 -13 25
-13 6 0 -24 -21 -68 -46 -44 -26 -91 -54 -105 -63 -14 -8 -27 -16 -30 -16 -3
0 -16 -8 -30 -17 -24 -15 -294 -172 -392 -227 -25 -14 -112 -64 -192 -111 -80
-47 -158 -92 -172 -100 -15 -8 -99 -57 -187 -107 -88 -51 -162 -91 -165 -89
-2 3 -4 330 -3 728 0 857 0 818 5 818 3 0 55 -29 117 -65z m-4546 -1020 c28
-17 55 -32 60 -33 6 -1 18 -9 28 -17 9 -8 19 -15 22 -15 5 0 745 -425 830
-477 11 -7 27 -16 35 -20 8 -4 47 -26 85 -48 39 -23 90 -53 115 -67 25 -14 86
-49 135 -78 50 -29 110 -64 135 -78 53 -29 208 -118 230 -132 19 -11 406 -235
475 -275 29 -16 79 -46 111 -65 33 -19 61 -35 64 -35 7 -1 73 -42 86 -54 7 -5
15 -7 18 -4 3 4 6 1 6 -6 0 -7 5 -9 10 -6 6 3 10 2 10 -3 0 -5 8 -12 18 -16
20 -7 76 -39 95 -55 8 -6 17 -8 20 -4 4 3 7 1 7 -5 0 -7 7 -12 15 -12 8 0 15
-4 15 -10 0 -5 5 -10 11 -10 6 0 63 -31 127 -68 143 -84 176 -99 231 -108 69
-11 83 -11 141 3 30 7 63 15 74 18 10 2 26 11 36 20 9 8 20 15 24 15 4 0 72
38 152 85 80 47 149 85 154 85 6 0 10 5 10 10 0 6 4 10 10 10 5 0 47 23 94 50
47 28 89 50 95 50 5 0 11 4 13 8 2 5 28 22 58 39 30 17 124 70 208 119 189
111 172 101 267 153 44 25 103 60 132 78 29 18 55 33 58 33 3 0 24 11 46 26
40 25 49 30 164 95 33 18 62 37 63 41 2 4 8 8 13 8 5 0 106 56 225 125 119 69
218 125 221 125 2 0 21 12 40 28 20 15 39 27 42 26 3 -1 15 4 26 11 73 45 197
114 215 120 11 3 20 10 20 15 0 4 8 10 18 14 9 3 31 14 47 23 151 91 206 123
228 130 9 3 17 9 17 14 0 5 4 9 9 9 5 0 75 38 157 85 108 62 150 82 156 72 4
-6 8 -8 8 -3 0 5 6 4 13 -2 13 -11 178 -107 267 -155 30 -17 57 -33 60 -37 3
-3 25 -17 50 -30 63 -32 79 -42 127 -73 24 -15 45 -27 47 -27 6 0 127 -71 144
-84 108 -87 175 -196 188 -311 7 -59 4 -859 -4 -866 -6 -6 -231 -136 -312
-181 -19 -11 -48 -28 -65 -38 -16 -11 -46 -27 -65 -37 -19 -9 -37 -20 -40 -23
-3 -4 -17 -13 -32 -21 -15 -8 -69 -38 -118 -66 -50 -29 -95 -53 -100 -53 -6 0
-10 -4 -10 -10 0 -5 -6 -10 -14 -10 -8 0 -21 -6 -28 -13 -7 -7 -28 -20 -45
-28 -18 -7 -33 -17 -33 -21 0 -5 -6 -8 -13 -8 -7 0 -35 -16 -63 -34 -29 -19
-54 -32 -58 -29 -3 4 -6 1 -6 -5 0 -7 -4 -12 -9 -12 -13 0 -135 -73 -139 -82
-2 -5 -8 -8 -14 -8 -6 0 -57 -26 -112 -59 -56 -32 -117 -68 -136 -79 -19 -10
-106 -60 -192 -111 -86 -50 -162 -91 -167 -91 -6 0 -11 -4 -11 -10 0 -5 -4
-10 -9 -10 -8 0 -58 -28 -136 -76 -22 -13 -51 -30 -65 -37 -14 -6 -27 -14 -30
-17 -3 -3 -23 -15 -45 -27 -22 -11 -54 -29 -72 -40 -93 -53 -431 -250 -448
-260 -11 -7 -33 -20 -50 -28 -16 -9 -39 -22 -50 -28 -11 -7 -63 -36 -115 -66
-52 -30 -97 -57 -100 -60 -3 -3 -23 -15 -45 -26 -88 -44 -172 -158 -190 -257
-11 -60 -12 -122 -2 -135 5 -7 6 -13 1 -13 -11 0 -11 -121 0 -138 4 -7 4 -12
-1 -12 -4 0 -8 -36 -8 -80 0 -44 4 -80 8 -80 5 0 5 -5 1 -11 -10 -16 -11 -229
-1 -229 5 0 5 -6 0 -12 -10 -17 -11 -67 -1 -95 4 -13 4 -23 0 -23 -9 0 -8 -92
2 -108 4 -7 4 -12 -1 -12 -10 0 -10 -91 1 -108 4 -7 3 -12 -1 -12 -5 0 -8 -19
-6 -42 2 -47 3 -72 3 -160 0 -32 0 -68 0 -80 0 -13 0 -84 0 -158 0 -74 0 -143
0 -152 0 -10 0 -38 0 -63 0 -25 0 -52 0 -60 0 -8 0 -35 0 -60 0 -25 0 -52 0
-60 0 -8 0 -35 0 -60 0 -25 0 -52 0 -60 0 -8 -1 -27 -1 -42 0 -16 0 -46 0 -68
1 -33 1 -144 1 -180 0 -5 -1 -76 -2 -158 -2 -81 1 -147 5 -147 5 0 5 -6 0 -12
-10 -17 -11 -67 -1 -95 4 -13 4 -23 0 -23 -9 0 -8 -92 2 -108 4 -7 4 -12 -1
-12 -10 0 -10 -91 1 -108 4 -7 4 -12 -1 -12 -10 0 -9 -211 1 -228 4 -7 4 -12
-1 -12 -10 0 -10 -91 1 -108 4 -7 3 -12 -1 -12 -12 0 -10 -133 1 -142 6 -4 -2
-10 -17 -13 -15 -4 -27 -11 -27 -16 0 -5 -4 -9 -10 -9 -5 0 -64 -32 -132 -72
-68 -39 -136 -79 -151 -87 -16 -9 -36 -20 -45 -26 -9 -5 -60 -35 -112 -65 -52
-30 -108 -63 -125 -72 -134 -79 -196 -100 -298 -104 -96 -3 -178 22 -291 89
-28 16 -64 37 -81 47 -16 9 -72 41 -123 71 -139 81 -205 119 -222 126 -8 4
-17 9 -20 13 -8 9 -152 90 -160 90 -35 0 -34 -11 -35 1774 -1 957 -5 1752 -9
1766 -33 101 -117 203 -201 245 -22 11 -42 22 -45 25 -3 3 -16 11 -30 19 -14
8 -47 27 -75 43 -27 16 -58 32 -67 35 -10 3 -18 9 -18 13 0 4 -8 10 -17 13
-10 4 -36 18 -58 31 -22 14 -49 30 -60 35 -11 5 -66 36 -123 70 -57 34 -108
61 -113 61 -5 0 -9 4 -9 9 0 5 -8 11 -17 14 -10 3 -40 19 -68 35 -27 16 -68
39 -90 52 -22 13 -53 31 -70 42 -16 10 -42 24 -57 30 -16 7 -28 16 -28 20 0 4
-4 8 -10 8 -5 0 -33 14 -62 31 -59 35 -101 60 -168 97 -25 14 -62 36 -82 49
-21 12 -42 23 -48 23 -5 0 -10 5 -10 10 0 6 -6 10 -13 10 -7 0 -28 11 -47 23
-32 22 -85 52 -180 103 -19 11 -37 22 -40 26 -3 4 -17 12 -30 18 -14 5 -63 33
-109 60 -46 28 -88 50 -92 50 -5 0 -9 5 -9 10 0 6 -4 10 -10 10 -8 0 -138 72
-180 100 -8 6 -22 13 -30 17 -8 3 -26 14 -40 23 -14 9 -52 32 -85 50 -70 38
-110 61 -133 75 -151 89 -232 135 -241 135 -6 0 -11 4 -11 9 0 5 -10 13 -22
17 -13 3 -30 12 -38 19 -8 7 -31 21 -50 32 -19 10 -85 47 -145 81 l-111 64 2
431 c1 426 5 505 28 519 6 4 7 8 3 8 -5 0 6 26 23 59 28 51 46 73 118 142 18
18 327 199 338 199 4 0 15 6 23 14 16 13 113 69 158 90 13 6 23 14 23 19 0 4
4 7 9 7 5 0 45 20 88 45 43 25 85 49 93 54 17 10 30 4 105 -44z m-985 -2065
c0 -5 15 -17 33 -25 17 -9 57 -30 88 -48 79 -45 290 -167 316 -184 13 -7 25
-12 27 -11 2 2 12 -4 22 -13 11 -9 96 -60 189 -113 94 -54 177 -102 185 -107
72 -44 172 -99 180 -99 6 0 10 -4 10 -10 0 -5 4 -10 9 -10 5 0 49 -23 98 -51
48 -29 105 -61 125 -72 l38 -20 -35 -24 c-19 -13 -39 -23 -44 -23 -6 0 -11 -3
-11 -8 0 -4 -17 -15 -37 -25 -21 -10 -63 -33 -93 -52 -30 -19 -61 -34 -67 -35
-7 0 -13 -4 -13 -8 0 -5 -22 -19 -50 -32 -27 -13 -50 -26 -50 -30 0 -3 -12
-11 -27 -17 -16 -7 -50 -25 -78 -41 -27 -16 -102 -59 -165 -96 -63 -36 -122
-70 -130 -75 -71 -43 -343 -199 -375 -215 -22 -12 -42 -24 -45 -27 -7 -8 -120
-69 -128 -69 -4 0 -7 88 -7 195 0 107 4 195 8 195 5 0 5 5 1 11 -8 14 -9 393
0 407 3 6 3 13 -2 16 -7 4 -8 82 -2 111 1 6 2 12 1 15 -6 15 -5 400 1 400 4 0
3 12 0 28 -9 34 -8 145 2 160 9 15 26 16 26 2z m8125 -771 c0 -446 -4 -769 -9
-769 -5 0 -31 14 -58 30 -26 17 -53 30 -58 30 -6 0 -10 5 -10 10 0 6 -4 10
-10 10 -5 0 -31 13 -58 29 -49 29 -99 57 -187 107 -27 15 -52 32 -53 36 -2 4
-8 6 -13 2 -5 -3 -9 0 -9 5 0 6 -4 11 -9 11 -6 0 -61 30 -123 66 -62 37 -138
80 -168 97 -30 17 -57 33 -60 36 -3 3 -21 14 -40 23 -19 10 -53 29 -75 42 -22
14 -51 31 -65 39 -102 55 -266 152 -271 160 -3 5 -8 8 -10 7 -7 -3 -59 23 -59
29 0 6 40 33 80 54 8 4 33 19 55 32 22 14 51 30 65 37 14 7 49 27 78 46 28 18
52 29 52 25 0 -4 4 -3 8 3 4 6 95 61 202 123 107 61 202 115 210 121 8 5 47
27 85 49 39 22 93 54 120 69 28 16 74 43 103 60 28 17 52 29 52 26 0 -2 10 4
22 16 12 11 28 20 35 20 7 0 13 5 13 10 0 6 6 10 13 10 6 1 41 18 77 40 35 22
67 37 69 34 3 -3 6 -352 6 -775z m-6140 -380 c88 -51 184 -105 212 -121 29
-16 55 -34 59 -39 3 -5 9 -7 14 -4 4 3 13 -2 20 -10 7 -8 18 -15 25 -15 8 0
15 -3 17 -7 3 -8 66 -44 115 -67 13 -6 23 -14 23 -18 0 -5 6 -8 14 -8 8 0 21
-6 28 -12 8 -7 29 -21 48 -32 72 -39 105 -58 114 -66 4 -5 8 -237 8 -517 0
-594 0 -563 -11 -563 -5 0 -38 -17 -72 -38 -35 -22 -84 -50 -109 -64 -25 -14
-89 -51 -142 -82 -228 -131 -291 -166 -298 -166 -5 0 -10 -4 -12 -8 -1 -4 -34
-26 -73 -48 -38 -21 -94 -54 -125 -72 -30 -18 -63 -35 -72 -39 -10 -3 -18 -9
-18 -13 0 -4 -11 -11 -24 -14 -14 -3 -31 -12 -38 -19 -7 -7 -24 -18 -38 -25
-14 -6 -38 -20 -55 -30 -43 -25 -96 -56 -303 -176 -101 -58 -188 -106 -193
-106 -5 0 -9 -3 -9 -7 0 -5 -10 -13 -23 -19 -49 -23 -112 -59 -115 -66 -2 -5
-10 -8 -18 -8 -8 0 -14 -4 -14 -9 0 -21 -52 0 -170 69 -69 40 -138 80 -155 90
-16 9 -61 34 -98 56 -38 21 -92 53 -121 69 -253 144 -302 185 -356 299 -37 77
-43 109 -44 223 -1 51 -5 93 -9 93 -5 0 -5 5 -1 12 11 17 12 78 2 84 -5 3 -5
10 -2 16 4 6 7 137 8 290 l1 280 55 34 c30 18 73 42 95 54 43 22 77 42 85 50
3 3 23 14 45 25 22 11 42 23 45 26 3 4 30 19 60 35 30 15 57 31 60 34 9 10
152 90 161 90 5 0 9 5 9 11 0 5 4 8 9 4 5 -3 12 -1 15 4 4 5 43 30 89 56 45
25 89 50 97 55 45 29 344 200 350 200 4 0 18 8 31 18 13 11 49 32 79 49 30 16
74 42 97 56 24 15 47 27 53 27 5 0 10 5 10 11 0 5 4 8 9 4 5 -3 13 0 16 5 4 6
17 15 28 20 12 6 40 21 62 35 22 14 47 28 55 32 8 4 44 24 80 45 36 21 72 42
80 47 9 5 26 1 45 -10 16 -9 102 -59 190 -110z m4713 -85 c23 -13 63 -36 90
-51 26 -14 71 -41 100 -60 29 -18 55 -33 58 -33 5 0 74 -40 339 -196 55 -32
102 -59 105 -59 3 0 16 -8 30 -16 68 -43 183 -109 200 -114 11 -4 20 -11 20
-16 0 -5 5 -9 11 -9 6 0 37 -15 68 -34 31 -19 72 -43 91 -54 19 -10 74 -42
122 -71 48 -28 89 -51 92 -51 3 0 25 -14 50 -31 l46 -30 0 -439 c-1 -277 -4
-441 -10 -445 -6 -4 -8 -11 -4 -16 3 -5 0 -16 -6 -24 -7 -8 -9 -15 -6 -15 4 0
-8 -28 -26 -62 -35 -67 -130 -171 -166 -182 -12 -4 -22 -12 -22 -17 0 -6 -4
-8 -9 -5 -5 3 -14 -1 -21 -9 -7 -8 -19 -15 -26 -15 -8 0 -14 -4 -14 -8 0 -5
-16 -14 -35 -22 -19 -8 -35 -17 -35 -21 0 -4 -8 -9 -17 -12 -10 -4 -44 -21
-75 -39 -31 -18 -97 -56 -145 -84 -48 -28 -122 -70 -163 -94 -41 -23 -86 -49
-100 -58 -31 -20 -60 -25 -60 -11 0 5 -4 7 -10 4 -5 -3 -10 -2 -10 3 0 4 -16
14 -35 22 -19 8 -35 17 -35 22 0 4 -4 8 -10 8 -5 0 -33 14 -62 31 -58 35 -67
40 -208 120 -52 29 -96 57 -98 61 -2 5 -7 8 -12 8 -8 0 -231 126 -280 158 -14
9 -28 17 -32 17 -4 0 -13 6 -19 13 -7 6 -19 12 -26 12 -7 0 -13 5 -13 10 0 6
-5 10 -10 10 -14 0 -223 121 -232 135 -4 5 -8 6 -8 2 0 -5 -12 0 -27 11 -16
11 -46 29 -68 41 -22 11 -62 35 -90 51 -27 17 -58 33 -67 37 -10 3 -18 9 -18
14 0 5 -6 9 -12 9 -7 0 -41 18 -76 40 -34 22 -64 40 -66 40 -2 0 -57 31 -122
69 l-119 69 -1 537 -1 536 31 16 c17 9 111 63 209 119 98 57 182 104 187 104
6 0 10 4 10 9 0 5 8 11 18 14 9 3 40 19 67 36 28 16 61 36 75 44 46 26 155 89
195 114 22 13 52 28 68 34 15 6 27 15 27 19 0 26 52 5 195 -78 88 -52 179
-105 203 -118z m-4015 -2612 c-1 -394 -2 -745 -2 -779 l-1 -62 -77 46 c-43 26
-91 53 -108 61 -16 9 -32 18 -35 21 -5 6 -53 33 -125 70 -16 9 -32 19 -35 22
-3 4 -23 16 -45 28 -22 12 -47 25 -55 31 -56 35 -192 110 -199 110 -5 0 -11 4
-13 8 -1 5 -39 28 -83 53 -44 24 -88 48 -97 54 -88 53 -133 77 -134 74 -1 -2
-10 3 -20 12 -24 20 -118 74 -123 70 -2 -1 -7 1 -10 6 -3 5 -45 31 -93 58 -49
28 -88 52 -88 55 0 3 30 22 68 42 115 65 167 94 210 122 23 14 43 26 46 26 3
0 100 56 156 90 8 5 49 28 90 52 41 23 83 47 92 53 9 5 29 17 45 26 114 64
389 224 393 228 3 3 21 14 40 23 24 12 205 116 205 118 0 0 -1 -323 -2 -718z
m2757 699 c0 -5 8 -11 18 -14 9 -3 44 -22 77 -41 33 -19 71 -41 85 -49 27 -15
205 -118 258 -148 31 -18 72 -42 123 -71 13 -7 26 -15 29 -18 3 -3 21 -13 40
-23 19 -9 51 -27 70 -39 68 -42 115 -68 143 -80 15 -7 27 -16 27 -20 0 -4 4
-8 9 -8 8 0 118 -61 181 -100 8 -5 68 -39 133 -76 64 -37 117 -74 117 -81 0
-7 -3 -12 -7 -11 -10 3 -197 -103 -201 -114 -2 -4 -12 -8 -23 -8 -10 0 -19 -4
-19 -9 0 -5 -8 -11 -17 -14 -24 -8 -77 -40 -81 -49 -2 -5 -8 -8 -13 -8 -5 0
-64 -32 -132 -71 -67 -40 -135 -79 -152 -89 -58 -33 -361 -207 -484 -278 -68
-40 -127 -72 -131 -72 -5 0 -10 -3 -12 -7 -1 -5 -17 -16 -34 -25 l-32 -18 0
775 c0 657 2 775 14 775 8 0 14 -4 14 -9z"/>
</g>
</svg>
