<svg viewBox="0 0 21 14" xmlns="http://www.w3.org/2000/svg"><path d="m18.3333333 2.625v.875l.7453334.39130875c.5646666.29644125.9213333.90239625.9213333 1.56527875v3.086825c0 .6629-.3566667 1.2688375-.9213333 1.5652875l-.7453334.3913v.875c0 1.4497875-1.11925 2.625-2.5 2.625h-13.3333333c-1.38070833 0-2.5-1.1752125-2.5-2.625v-8.75c0-1.44974375 1.11929167-2.625 2.5-2.625h13.3333333c1.38075 0 2.5 1.17525625 2.5 2.625zm-14.99999997 1.75c0-.48325375.3731-.875.83333334-.875.46023333 0 .83333333.39174625.83333333.875v5.25c0 .4832625-.3731.875-.83333333.875-.46023334 0-.83333334-.3917375-.83333334-.875zm3.33333334 0c0-.48325375.37309166-.875.83333333-.875s.83333333.39174625.83333333.875v5.25c0 .4832625-.37309166.875-.83333333.875s-.83333333-.3917375-.83333333-.875zm3.33333333 0c0-.48325375.3730833-.875.8333333-.875s.8333334.39174625.8333334.875v5.25c0 .4832625-.3730834.875-.8333334.875s-.8333333-.3917375-.8333333-.875zm3.3333333 0c0-.48325375.3730834-.875.8333334-.875s.8333333.39174625.8333333.875v5.25c0 .4832625-.3730833.875-.8333333.875s-.8333334-.3917375-.8333334-.875z" fill="currentColor" fill-rule="evenodd" transform="translate(.5)"/></svg>