<svg viewBox="0 0 21 20" xmlns="http://www.w3.org/2000/svg"><path d="m13.2503045.01537068c2.48339 0 4.4965416 2.01317162 4.4965416 4.4965416v6.49500452c0 .5518755-.4473559.9992315-.9992315.9992315-.5518755 0-.9992314-.447356-.9992314-.9992315v-6.49500452c0-1.37964888-1.1184398-2.49807867-2.4980787-2.49807867s-2.4980787 1.11842979-2.4980787 2.49807867v10.99154612c0 2.48339-2.01315161 4.4965416-4.49654157 4.4965416-2.48336998 0-4.4965416-2.0131516-4.4965416-4.4965416v-7.49423599c0-.55185556.44737591-.99923147.99923146-.99923147.55185556 0 .99923147.44737591.99923147.99923147v7.49423599c0 1.3796389 1.11842979 2.4980787 2.49807867 2.4980787 1.37964887 0 2.49807866-1.1184398 2.49807866-2.4980787v-10.99154612c0-2.48336998 2.01315161-4.4965416 4.49654161-4.4965416zm3.4973101 13.98924052c1.6556266 0 2.9976944 1.3420678 2.9976944 2.9976944s-1.3420678 2.9976944-2.9976944 2.9976944-2.9976944-1.3420678-2.9976944-2.9976944 1.3420678-2.9976944 2.9976944-2.9976944zm-13.12615433-13.50885999 1.75760818 3.01305258c.38859113.66613766-.0919193 1.50270423-.86311615 1.50270423h-3.51521636c-.77119686 0-1.25169729-.83656657-.86311616-1.50271422l1.75760818-3.01304259c.38558344-.66100161 1.34064887-.66100161 1.72623231 0z" fill="currentColor" fill-rule="evenodd" transform="translate(.5)"/></svg>