<svg viewBox="0 0 20 20" xmlns="http://www.w3.org/2000/svg"><path d="m10 18c.5523 0 1 .4477 1 1s-.4477 1-1 1-1-.4477-1-1 .4477-1 1-1zm-7.07112-2.3432c.39052-.3905 1.02369-.3905 1.41421 0 .39053.3905.39053 1.0237 0 1.4142-.39052.3906-1.02369.3906-1.41421 0-.39052-.3905-.39052-1.0237 0-1.4142zm14.14222.0001c.3905.3905.3905 1.0237 0 1.4142s-1.0237.3905-1.4142 0-.3905-1.0237 0-1.4142 1.0237-.3905 1.4142 0zm-7.0711-9.6569c2.2091 0 4 1.79086 4 4 0 2.2091-1.7909 4-4 4-2.20914 0-4-1.7909-4-4 0-2.20914 1.79086-4 4-4zm9 3c.5523 0 1 .4477 1 1s-.4477 1-1 1-1-.4477-1-1 .4477-1 1-1zm-18 0c.55228 0 1 .4477 1 1s-.44772 1-1 1-1-.4477-1-1 .44772-1 1-1zm16.0711-6.07097c.3905.39052.3905 1.02369 0 1.41421-.3905.39053-1.0237.39053-1.4142 0-.3905-.39052-.3905-1.02369 0-1.41421s1.0237-.39052 1.4142 0zm-14.14213-.00015c.39053-.39052 1.02369-.39052 1.41422 0 .39052.39052.39052 1.02369 0 1.41421-.39053.39053-1.02369.39053-1.41422 0-.39052-.39052-.39052-1.02369 0-1.41421zm7.07103-2.92888c.5523 0 1 .44772 1 1s-.4477 1-1 1-1-.44772-1-1 .4477-1 1-1z" fill="currentColor" fill-rule="evenodd"/></svg>