<svg height="18" viewBox="0 0 20 18" width="20" xmlns="http://www.w3.org/2000/svg"><path d="m17.2725971 15.1315799v-8.93974806l1.3504357.81027961c.4305395.25830549.9889863.11871653 1.2472554-.31180474.25836-.43052127.1187256-.98893166-.3118139-1.24724624l-4.5652999-2.73919817-3.4919513-2.10386157-.000091-.00006364c-.2538146-.15292514-.4486301-.27029623-.6137187-.35854046-.0385449-.02155424-.0776352-.04160851-.1172711-.06014461-.1374526-.06705361-.2565418-.11168935-.3789038-.13865261-.2577236-.05679921-.52481083-.05679921-.78253451 0-.12272556.02703598-.24208753.07183536-.3799947.13917987-.03890855.01823611-.07727165.03792675-.11518021.05906282-.16527043.08831695-.36035861.20585167-.6147187.35910408l-.00009091.00002727-3.49714215 2.10703426-4.56008186 2.73605276c-.43052127.25831458-.57012115.81672497-.31180475 1.24724624.25830549.43052127.81671589.57011023 1.24723716.31180474l1.35041753-.81024324v8.93971169c0 1.0183495 0 1.5274333.19816996 1.9163369.17430666.3421771.45244824.6202641.79456165.7946253.38892185.1980882.89806021.1980882 1.91631873.1980882h1.63634082v-5.4544694c0-1.5062518 1.22098298-2.72723474 2.7272347-2.72723474 1.50625174 0 2.72723474 1.22098294 2.72723474 2.72723474v5.4544694h1.6363408c1.0182585 0 1.5274332 0 1.9163369-.1980882.3420861-.1743612.6202641-.4524482.7945344-.7946253.198179-.3889036.198179-.8979874.198179-1.9163369z" fill="#fff" fill-rule="evenodd" transform="translate(0 -.04063)"/></svg>