<svg height="26" viewBox="0 0 188 26" width="188" xmlns="http://www.w3.org/2000/svg"><g fill="#050310" fill-rule="evenodd"><g transform="translate(.495204 .901829)"><path d="m118.434796 17.2003704c-1.004629 1.2741752-2.411111 2.4288965-5.143703 2.4288965-4.380185 0-6.389445-2.0307168-6.831482-4.817975h21.378519v-.6370876c0-8.99886235-5.786667-13.02047782-15.10963-13.02047782-9.041666 0-15.0292591 3.9817975-15.0292591 11.62684872 0 8.0034129 5.4651851 11.7064846 15.2703701 11.7064846 9.282778 0 13.421852-3.7030717 14.466667-7.2866894z"/><path d="m67.5603521 23.5148376h9.1112705v-6.8899782h6.4618939c1.6800925 0 2.3585913 1.0003468 2.3585913 2.662037v4.2279412h8.9174137s0-2.5054466 0-7.5163399c-.1615473-1.9417211-1.2600693-3.0691721-2.617067-3.4449891v-.0626361c2.6493765-.751634 2.9901198-3.006536 2.9901198-5.10484754 0-2.44281046-.8576948-4.60375817-2.5700967-5.41802833-1.2600693-.59504357-2.8432334-.81427015-5.4603004-.81427015-6.7223262 0-11.7640708 0-15.1252338 0-.903687 0-2.2592174 0-4.0665913 0v3.84948017z"/><path d="m32.5603521 12.334282c0 11.7710152 10.4205088 12.1527778 16.0416666 12.1527778s16.0416667-.3817626 16.0416667-12.1527778c0-11.77101509-10.4205089-12.15277774-16.0416667-12.15277774s-16.0416666.38176265-16.0416666 12.15277774z"/><path d="m0 12.1527778c0 11.7710151 9.92851378 12.1527778 15.2842736 12.1527778 5.3557598 0 15.2842735-.3817627 15.2842735-12.1527778 0-11.77101515-9.9285137-12.1527778-15.2842735-12.1527778-5.35575982 0-15.2842736.38176265-15.2842736 12.1527778z"/><path d="m23.3832995 1.15372648c-1.0115946 14.58779732-1.5173919 21.88169602-1.5173919 21.88169602s2.9166667.4838791 8.75 1.4516373z"/></g><g transform="translate(136.111112 2.055555)"><path d="m1.76935229 5.43063003c0-1.03217158.60207127-2.05261394 2.1994032-2.05261394 1.58504476 0 2.18711602 1.02044236 2.18711602 2.05261394 0 1.05563002-.60207126 2.07607238-2.18711602 2.07607238-1.59733193 0-2.1994032-1.02044236-2.1994032-2.07607238zm6.00842549-5.43063003h-1.69562928v3.19034853h-.02457434c-.50377391-.75067025-1.47446024-1.05563003-2.49429524-1.05563003-2.48200808 0-3.56327892 1.72419571-3.56327892 3.29591153 0 1.59517426 1.08127084 3.31936997 3.56327892 3.31936997 1.35158855 0 2.37142355-.71548257 2.49429524-1.09081769h.02457434v.85623324l1.69562928.23458445z"/><path d="m8.75 8.75h1.9444444v-6.38774105h-1.9444444zm0-7.40013774h1.9444444v-1.34986226h-1.9444444z"/><path d="m13.3844581 5.35485748c0-1.20891507.9185412-2.06151833 2.1472392-2.06151833.8469666 0 2.2665304.41993892 2.2665304 2.03606748 0 1.24709133-.8708248 2.11242001-2.1233811 2.11242001-1.7297205 0-2.2903885-1.09438627-2.2903885-2.08696916zm4.4137696-3.25770797v.99258289h-.0238582c-.3817315-.71262362-1.3241309-1.14528796-2.6005454-1.14528796-2.4335378 0-3.5071574 1.70520652-3.5071574 3.43586388 0 2.50690808 1.8490116 3.41041303 3.5190865 3.41041303.9662577 0 1.7893661-.27995928 2.5766872-1.08166085h.0357873v.81442699c0 .8780541-.2743695 1.94698951-2.1591684 1.94698951-1.002045 0-1.7774369-.1399796-1.9444444-1.0053083h-1.7177915c.1431493 1.7433828 1.7535788 2.201498 3.7099523 2.201498 2.7914111 0 3.7576687-1.4252473 3.7576687-3.02865041v-6.54086678z"/><path d="m20.4166667 8.75h1.9444444v-6.38774105h-1.9444444zm0-7.40013774h1.9444444v-1.34986226h-1.9444444z"/><path d="m23.3333333 6.85298103c0 1.18563686.1761539 1.89701897 2.4525746 1.89701897h1.4363143v-1.2804878c-.4471544.01185636-.8807588.02371273-1.3414634.02371273-.6368564 0-.6775068-.39126016-.6775068-1.11449864v-2.8692412h1.9512195v-1.18563685h-1.9512195v-2.32384824h-1.8699187v2.32384824 1.18563685z"/><path d="m35.0976595 4.06968811c0-.82383041-.0932867-2.12524367-3.3233383-2.12524367-1.8307513 0-3.0318175.51340156-3.2650342 2.17300195h1.5742129c.0583042-.70443469.6296852-1.05068226 1.6908213-1.05068226.9328669 0 1.7491254.17909357 1.7491254.90740741 0 .48952242-.2448776.57309942-2.5537231.79995127-1.0261536.09551657-2.7752791.25073099-2.7752791 1.99390838 0 1.2417154.9095453 1.98196881 2.5187407 1.98196881 1.8074296 0 2.5887056-.56115984 2.9035482-.87158869.0466433.23879142.1632517.81189083 1.212727.81189083.5480593 0 .8279193-.08357699 1.1427619-.14327485v-1.1581384c-.1282692.02387914-.3731467.03581871-.5247376.03581871-.1049475 0-.3498251-.01193957-.3498251-.35818713zm-1.6091954 1.89839181c0 1.39692983-1.4576045 1.73123782-2.3205064 1.73123782-.5480593 0-1.2943528-.15521443-1.2943528-.99098441 0-.5372807.2915209-.81189083 1.5042478-.95516569 1.142762-.13133528 1.644178-.19103314 2.1106114-.39400585z"/><path d="m36.9444444 8.75h1.9444445v-8.75h-1.9444445z"/></g><g transform="translate(136.528195 15.909722)"><path d="m7.48222222 2.24972222c0-.87208333-.10111111-2.24972222-3.60208333-2.24972222-1.98430556 0-3.28611111.54347222-3.53888889 2.30027778h1.70625c.06319444-.74569445.6825-1.11222222 1.83263889-1.11222222 1.01111111 0 1.89583333.18958333 1.89583333.96055555 0 .51819445-.26541666.60666667-2.76791666.84680556-1.11222223.10111111-3.00805556.26541666-3.00805556 2.11069444 0 1.31444445.98583333 2.09805556 2.73 2.09805556 1.95902778 0 2.80583333-.59402778 3.14708333-.92263889.05055556.25277778.17694445.85944444 1.31444445.85944444.59402778 0 .89736111-.08847222 1.23861111-.15166666v-1.22597223c-.13902778.02527778-.40444445.03791667-.56875.03791667-.11375 0-.37916667-.01263889-.37916667-.37916667zm-1.74416666 2.00958334c0 1.47875-1.57986112 1.83263888-2.51513889 1.83263888-.59402778 0-1.40291667-.16430555-1.40291667-1.04902777 0-.56875.31597222-.85944445 1.63041667-1.01111111 1.23861111-.13902778 1.78208333-.20222223 2.28763889-.41708334z"/><path d="m10.3443054 3.46305556c0-1.20069445.9731945-2.0475 2.275-2.0475.8973611 0 2.4013889.41708333 2.4013889 2.02222222 0 1.23861111-.9226389 2.09805555-2.2497222 2.09805555-1.8326389 0-2.4266667-1.08694444-2.4266667-2.07277777zm4.6763889-3.23555556v.98583333h-.0252778c-.4044444-.70777777-1.4029166-1.1375-2.7552778-1.1375-2.57833328 0-3.71583328 1.69361111-3.71583328 3.4125 0 2.48986111 1.95902778 3.38722223 3.72847218 3.38722223 1.02375 0 1.8958334-.27805556 2.73-1.07430556h.0379167v.80888889c0 .87208333-.2906944 1.93375-2.2876389 1.93375-1.0616667 0-1.8831944-.13902778-2.0601389-.99847222h-1.81999997c.15166666 1.73152777 1.85791667 2.18652777 3.93069447 2.18652777 2.9575 0 3.98125-1.41555555 3.98125-3.00805555v-6.49638889z"/><path d="m25.8326386 4.04444444v-.25277777c0-1.95902778-1.1375-3.79166667-4.1076389-3.79166667-2.3761111 0-4.0318055 1.42819444-4.0318055 3.66527778 0 1.78208333 1.1248611 3.53888889 4.1455555 3.53888889 2.5530556 0 3.4630556-1.47875 3.8422222-2.22444445h-1.8958333c-.34125.55611111-.8468055.96055556-1.9969444.96055556-1.7315278 0-2.2370834-1.15013889-2.275-1.89583334zm-6.3194444-1.11222222c.2906944-1.365 1.4281944-1.74416666 2.2370833-1.74416666.8594444 0 2.0475.40444444 2.2623611 1.74416666z"/><path d="m26.7104162 6.95138889h1.7441667v-3.60208333c0-1.42819445 1.1754167-1.93375 2.0854167-1.93375 1.4408333 0 1.6809722.82152777 1.6809722 1.54194444v3.99388889h1.7441667v-4.55c0-1.80736111-1.4029167-2.32555556-2.84375-2.32555556-1.1880556 0-2.0727778.46763889-2.6415278 1.18805556h-.0252778v-1.01111111h-1.7441667z"/><path d="m42.590555 2.60361111c-.3665278-2.26236111-2.6668056-2.60361111-3.6779167-2.60361111-2.5909722 0-4.1455555 1.44083333-4.1455555 3.60208333 0 1.84527778 1.1501389 3.60208334 4.1455555 3.60208334.4676389 0 3.3113889-.03791667 3.7158334-2.81847223h-1.82c-.3665278.94791667-.7330556 1.47875-2.0854167 1.47875-1.5040278 0-2.1359722-1.09958333-2.1359722-2.26236111 0-1.16277777.7077778-2.26236111 2.3255555-2.26236111.9984723 0 1.7315278.56875 1.8579167 1.26388889z"/><path d="m45.6801382 6.83763889-.3918056.80888889c-.2022222.41708333-.5434722.51819444-1.0111111.51819444-.3791666 0-.7330555-.01263889-.8720833-.02527778v1.33972223c.34125.01263889.79625.02527777 1.0869444.02527777 1.4534723 0 1.8831945-.21486111 2.4140278-1.365l3.6526389-7.88666666h-1.8579167l-2.0980555 4.79013889-2.1486111-4.79013889h-1.8958334z"/></g></g></svg>